<svg version="1.1" id="Layer_1" xmlns="http://www.w3.org/2000/svg" xmlns:xlink="http://www.w3.org/1999/xlink" x="0px" y="0px"
	 width="100%" viewBox="0 0 5000 5000" enable-background="new 0 0 5000 5000" xml:space="preserve">
<path fill="#000000" opacity="0.000001" stroke="none" 
	d="
M2796.000000,5004.000000 
	C1864.000000,5004.000000 934.000000,5004.000000 4.000000,5004.000000 
	C4.000000,3337.333252 4.000000,1670.666626 4.000000,4.000001 
	C1670.666626,4.000000 3337.333252,4.000000 5004.000000,4.000000 
	C5004.000000,1670.666626 5004.000000,3337.333252 5004.000000,5004.000000 
	C4268.666504,5004.000000 3533.333252,5004.000000 2796.000000,5004.000000 
M2391.353516,2504.024658 
	C2391.185547,2495.366699 2390.870850,2486.708496 2390.870117,2478.050537 
	C2390.845947,2078.729248 2390.862305,1679.408081 2390.814453,1280.086792 
	C2390.811768,1258.119019 2390.172607,1236.196167 2388.901855,1214.214844 
	C2386.195801,1167.393311 2378.298340,1121.483276 2365.383545,1076.696411 
	C2309.868408,884.176147 2194.131836,738.881165 2019.223999,641.306641 
	C1928.827148,590.877625 1831.033936,563.850098 1728.037964,556.798462 
	C1688.922485,554.120483 1649.597778,554.849976 1610.290527,558.986816 
	C1570.423096,563.182678 1531.191528,569.780823 1492.577515,580.251221 
	C1398.044800,605.884094 1312.460083,649.475098 1236.074585,710.575378 
	C1168.305542,764.783508 1111.885498,829.217529 1067.782349,904.143494 
	C1003.553833,1013.259644 969.396545,1131.002319 969.285461,1257.781982 
	C968.927307,1666.435913 969.150879,2075.090332 969.153320,2483.744629 
	C969.153320,2489.077637 969.035522,2494.417969 969.284485,2499.740479 
	C969.403442,2502.281982 970.254639,2504.788818 970.771667,2507.299316 
	C979.750000,2510.580078 988.468872,2509.115479 996.994629,2509.116943 
	C1454.314087,2509.191895 1911.633667,2509.184814 2368.953125,2509.162842 
	C2374.938232,2509.162598 2380.923584,2508.858154 2387.333496,2512.336182 
	C2387.442627,2520.329834 2387.646729,2528.323486 2387.646973,2536.317139 
	C2387.662354,2990.240723 2387.660645,3444.164551 2387.661133,3898.088135 
	C2387.661133,3904.087158 2387.502197,3910.092285 2387.730713,3916.082764 
	C2387.874512,3919.847412 2388.603516,3923.589844 2389.191895,3928.322510 
	C2398.200439,3928.322510 2406.116699,3928.322510 2414.032715,3928.322510 
	C2819.297852,3928.322510 3224.562988,3928.274902 3629.828125,3928.405762 
	C3665.227051,3928.416992 3700.265381,3925.415283 3735.322510,3920.656006 
	C3802.580811,3911.524902 3866.493164,3891.224609 3927.885254,3863.157715 
	C3995.616211,3832.192871 4056.615723,3790.552002 4111.170898,3739.909180 
	C4167.224121,3687.875732 4214.223145,3628.525146 4250.799316,3561.166260 
	C4286.296875,3495.794922 4312.354980,3427.116943 4325.607422,3353.613037 
	C4337.008789,3290.373291 4341.942871,3226.934570 4336.775391,3162.797119 
	C4332.916504,3114.897461 4325.517578,3067.620117 4312.079590,3021.418701 
	C4293.003418,2955.831055 4265.687012,2893.793945 4228.771973,2836.351318 
	C4195.897949,2785.197754 4157.556152,2738.404297 4112.661133,2697.031738 
	C4064.838867,2652.961426 4012.355225,2615.694336 3954.737061,2585.675293 
	C3897.116455,2555.655029 3836.349854,2534.156738 3772.734619,2521.189697 
	C3730.935547,2512.669434 3688.771240,2507.457031 3645.842529,2507.488770 
	C3227.913086,2507.798340 2809.983398,2507.669189 2391.353516,2504.024658 
M993.157654,3517.999268 
	C993.158691,3551.308594 993.101562,3584.617920 993.229919,3617.926758 
	C993.247070,3622.388916 994.201660,3626.847412 994.844360,3632.354248 
	C1002.426941,3632.354248 1009.038574,3632.384033 1015.649841,3632.349121 
	C1051.607178,3632.159180 1087.564575,3631.957275 1123.521851,3631.718994 
	C1124.093506,3631.715088 1124.723633,3631.283447 1125.214844,3630.906494 
	C1125.733765,3630.507568 1126.118774,3629.934326 1127.701660,3628.160400 
	C1127.701660,3614.219482 1127.422241,3598.972168 1127.778931,3583.739502 
	C1128.146484,3568.045898 1126.067017,3552.187012 1129.496338,3535.690186 
	C1149.691162,3535.690186 1168.942139,3535.865479 1188.188843,3535.649414 
	C1217.714600,3535.317627 1246.558228,3530.875000 1274.105103,3519.840820 
	C1295.374146,3511.321533 1314.296143,3499.225586 1329.748291,3482.041260 
	C1355.135742,3453.808105 1365.239136,3420.441895 1364.475586,3382.886963 
	C1363.255737,3322.881104 1335.371826,3280.692871 1281.337158,3255.244141 
	C1253.064209,3241.928711 1222.981689,3236.723145 1192.148438,3236.466553 
	C1130.197632,3235.951172 1068.239502,3236.298584 1006.284424,3236.362549 
	C1002.497009,3236.366455 998.710205,3237.006836 995.638977,3237.286133 
	C994.532715,3239.853760 993.579346,3241.035156 993.576904,3242.218994 
	C993.389221,3332.812256 993.276367,3423.405518 993.157654,3517.999268 
M1374.102539,3039.688477 
	C1389.421631,3039.682617 1404.743164,3039.827393 1420.057861,3039.562500 
	C1423.746826,3039.498779 1427.412598,3038.076904 1431.093628,3037.278809 
	C1431.331909,3032.207031 1431.690430,3028.230469 1431.680664,3024.255127 
	C1431.426392,2921.032227 1431.145996,2817.809082 1430.799805,2714.586426 
	C1430.786987,2710.775635 1430.066406,2706.967529 1429.714111,2703.533203 
	C1413.736328,2700.599854 1358.281738,2700.185059 1335.709595,2702.799805 
	C1324.679077,2721.316650 1313.130737,2740.711426 1301.573486,2760.101318 
	C1289.644897,2780.114014 1277.832275,2800.197266 1265.739502,2820.110352 
	C1254.105469,2839.267578 1243.695801,2859.214355 1229.370239,2878.920898 
	C1209.607422,2848.669678 1192.353149,2818.754883 1174.089355,2789.486572 
	C1155.819458,2760.208496 1138.505005,2730.327637 1119.654419,2701.237061 
	C1088.776978,2701.110107 1058.963013,2701.108154 1028.340820,2701.225098 
	C1027.695801,2707.063232 1026.767944,2711.563965 1026.764526,2716.065186 
	C1026.684570,2819.301514 1026.682495,2922.538086 1026.787720,3025.774414 
	C1026.792114,3030.134766 1027.968628,3034.494141 1028.558472,3038.573242 
	C1060.502930,3041.081055 1114.758789,3040.300537 1130.042725,3036.985596 
	C1130.307861,3030.806396 1130.814575,3024.285889 1130.829956,3017.764160 
	C1130.913330,2982.463867 1130.817139,2947.163574 1130.968140,2911.864014 
	C1130.983398,2908.326660 1129.370483,2903.922119 1135.281982,2900.786865 
	C1158.338989,2936.164551 1179.399658,2972.884766 1202.785156,3008.408447 
	C1220.444580,3009.445801 1237.552368,3010.107178 1254.670044,3007.916260 
	C1276.105957,2971.867920 1297.190308,2936.401367 1318.301880,2900.950928 
	C1318.977051,2899.817139 1319.882690,2898.804199 1320.782715,2897.829102 
	C1321.161499,2897.418701 1321.781494,2897.101074 1322.334473,2897.014893 
	C1322.969849,2896.916260 1323.652466,2897.120117 1326.403320,2897.420654 
	C1326.978394,2912.789307 1326.626465,2928.540527 1326.685425,2944.266602 
	C1326.742920,2959.585205 1326.469238,2974.908936 1326.761108,2990.222168 
	C1327.063721,3006.091309 1325.335327,3022.057861 1328.260010,3038.807617 
	C1342.428223,3040.515137 1356.330566,3039.341309 1374.102539,3039.688477 
M1808.290283,2946.000000 
	C1808.293701,2972.649414 1808.203491,2999.299805 1808.394531,3025.947754 
	C1808.425781,3030.308350 1809.697021,3034.659912 1810.382080,3038.934082 
	C1814.356201,3039.250000 1816.999023,3039.641357 1819.641968,3039.643311 
	C1874.939453,3039.681885 1930.238159,3039.873291 1985.534058,3039.578125 
	C2006.251465,3039.467773 2026.594482,3035.889893 2046.498413,3030.024902 
	C2076.457275,3021.197021 2103.077393,3006.612305 2124.425781,2983.531494 
	C2165.122803,2939.532959 2172.367920,2886.612305 2161.622803,2830.593994 
	C2151.789795,2779.331787 2120.345215,2743.711914 2073.458252,2721.478516 
	C2042.739258,2706.912109 2009.817627,2701.928711 1976.389771,2701.383545 
	C1924.437378,2700.536377 1872.460571,2701.120850 1820.494629,2701.260742 
	C1816.735962,2701.270752 1812.980835,2702.597656 1808.290283,2703.489990 
	C1808.290283,2783.516846 1808.290283,2862.758545 1808.290283,2946.000000 
M2002.135010,3322.786133 
	C1985.822021,3323.697998 1969.283081,3320.848389 1952.309937,3324.830078 
	C1952.309937,3421.010498 1952.304077,3516.299072 1952.325806,3611.587646 
	C1952.327026,3616.914307 1952.537109,3622.241943 1952.710083,3627.566895 
	C1952.729614,3628.166992 1953.064209,3628.802979 1953.395142,3629.333984 
	C1953.742554,3629.891357 1954.260742,3630.342529 1954.704224,3630.840088 
	C1974.168457,3633.206787 2065.177979,3632.886230 2080.613525,3630.250244 
	C2080.820068,3624.507080 2081.209229,3618.580566 2081.217529,3612.653564 
	C2081.272705,3573.323486 2081.245117,3533.993408 2081.248047,3494.663330 
	C2081.248535,3489.997070 2080.571045,3485.199219 2081.421631,3480.691406 
	C2083.384766,3470.287598 2084.677979,3459.414062 2088.809570,3449.838379 
	C2096.279785,3432.525146 2117.208984,3422.553223 2135.131104,3425.842285 
	C2152.068359,3428.950684 2161.856689,3440.367676 2164.672119,3461.278320 
	C2165.911865,3470.485596 2166.614990,3479.832520 2166.663086,3489.120850 
	C2166.872803,3529.782959 2166.742188,3570.447021 2166.764893,3611.110352 
	C2166.768555,3617.688721 2166.921631,3624.267334 2167.004639,3630.754883 
	C2170.306396,3631.453125 2172.223145,3632.215332 2174.138184,3632.210938 
	C2212.780762,3632.119141 2251.423340,3631.942139 2290.065674,3631.755371 
	C2290.708740,3631.752441 2291.433838,3631.549561 2291.968262,3631.204590 
	C2292.492676,3630.865967 2292.823242,3630.227051 2294.380859,3628.325684 
	C2294.507080,3623.223389 2294.805176,3616.664551 2294.810303,3610.105957 
	C2294.849121,3559.443604 2295.025146,3508.779785 2294.700195,3458.119385 
	C2294.615234,3444.845703 2293.862061,3431.433350 2291.793213,3418.341064 
	C2285.348877,3377.558350 2265.653809,3345.089111 2226.455566,3329.095703 
	C2178.513428,3309.534424 2131.494629,3312.298096 2087.534424,3342.068359 
	C2084.456055,3344.153320 2082.170166,3348.320557 2076.596436,3346.812744 
	C2075.975342,3339.428223 2075.329346,3331.750244 2074.575195,3322.786377 
	C2051.303223,3322.786377 2028.693115,3322.786377 2002.135010,3322.786133 
M1898.845459,3538.000488 
	C1898.845459,3516.015137 1899.170898,3494.023193 1898.727417,3472.046875 
	C1898.446167,3458.106445 1898.025635,3444.035400 1895.925903,3430.289062 
	C1888.717407,3383.101807 1863.668823,3349.406982 1818.541138,3331.921631 
	C1809.887207,3328.568604 1800.895630,3325.893311 1791.858032,3323.758789 
	C1755.036011,3315.062988 1717.945312,3315.450439 1680.801392,3321.464600 
	C1655.054077,3325.633301 1630.082764,3332.593750 1606.619019,3344.135742 
	C1601.533325,3346.637451 1594.917236,3347.834473 1592.701782,3354.607910 
	C1599.339233,3368.382324 1605.688843,3382.318848 1612.707764,3395.909668 
	C1619.632446,3409.318359 1624.356812,3423.969971 1634.100830,3436.416504 
	C1653.510132,3423.802734 1674.143066,3416.757812 1696.229126,3413.973877 
	C1710.882324,3412.126953 1725.593750,3412.352295 1739.755859,3416.614990 
	C1754.397339,3421.022217 1765.379517,3429.629150 1768.451050,3447.482666 
	C1754.849365,3449.093994 1742.353516,3448.316650 1729.945679,3448.225098 
	C1709.269287,3448.072510 1688.664917,3448.496582 1668.225586,3451.991699 
	C1649.081909,3455.264893 1630.562500,3460.211182 1613.974731,3470.916992 
	C1600.144043,3479.843262 1589.511475,3491.395996 1583.512207,3506.840820 
	C1568.151245,3546.387451 1578.982300,3600.302246 1627.338867,3624.380615 
	C1654.424072,3637.867432 1683.054077,3640.764160 1712.852417,3636.845215 
	C1736.255737,3633.767090 1756.430786,3625.267090 1771.497559,3606.461670 
	C1773.398193,3604.089111 1774.740356,3600.300049 1780.004150,3603.251709 
	C1780.004150,3611.928223 1780.004150,3621.101807 1780.004150,3631.683350 
	C1790.622070,3632.807617 1800.525146,3632.244141 1810.372070,3632.337891 
	C1819.698608,3632.426514 1829.026367,3632.357178 1838.353638,3632.357178 
	C1848.347046,3632.357178 1858.346313,3632.567383 1868.332397,3632.296875 
	C1878.050537,3632.033691 1887.979614,3633.630859 1898.845459,3630.640381 
	C1898.845459,3600.410889 1898.845459,3571.205566 1898.845459,3538.000488 
M1737.439331,2953.140381 
	C1696.803711,2953.139404 1656.167725,2953.207275 1615.532593,2953.059814 
	C1609.753174,2953.039062 1603.484375,2954.676758 1597.315308,2949.017822 
	C1597.315308,2943.399902 1597.079102,2936.764648 1597.382568,2930.154053 
	C1597.677979,2923.724365 1595.618774,2916.819336 1601.312744,2909.995605 
	C1607.079590,2909.774658 1613.620728,2909.321533 1620.162964,2909.307617 
	C1654.802734,2909.233887 1689.443237,2909.327881 1724.082764,2909.205322 
	C1729.156006,2909.187256 1734.226440,2908.319336 1740.267822,2907.753906 
	C1740.104858,2880.861572 1741.303223,2855.149414 1739.354004,2828.226074 
	C1723.055298,2827.079590 1707.850098,2827.786377 1692.686401,2827.666016 
	C1676.699707,2827.539062 1660.702881,2827.958008 1644.725952,2827.545166 
	C1629.564819,2827.153564 1614.249268,2829.453369 1599.440430,2826.054199 
	C1595.909546,2817.689453 1597.613525,2809.603516 1597.438354,2801.707031 
	C1597.353760,2797.898438 1598.404053,2794.064697 1599.109253,2789.038086 
	C1606.255493,2788.799561 1612.794312,2788.401367 1619.333618,2788.392090 
	C1660.635254,2788.333496 1701.936890,2788.412354 1743.238159,2788.294678 
	C1748.305176,2788.280273 1753.369507,2787.366455 1758.127441,2786.899658 
	C1761.164673,2759.783936 1760.409912,2715.729248 1756.869385,2702.837402 
	C1743.379028,2700.982178 1521.925415,2699.601562 1493.454834,2701.295654 
	C1490.931885,2701.445801 1488.458740,2702.431641 1485.376587,2703.169434 
	C1484.967163,2706.869873 1484.347656,2710.068359 1484.307373,2713.273926 
	C1484.173584,2723.930908 1484.243286,2734.590576 1484.243164,2745.249023 
	C1484.242065,2835.845947 1484.197388,2926.443115 1484.330688,3017.039795 
	C1484.341187,3024.109375 1482.640747,3031.584473 1486.693237,3038.634766 
	C1489.643921,3039.010986 1492.213989,3039.623535 1494.784302,3039.625000 
	C1582.050537,3039.674805 1669.316650,3039.686279 1756.582764,3039.585938 
	C1759.633911,3039.582520 1762.683716,3038.380371 1765.322754,3037.823730 
	C1767.935181,3014.824951 1767.450806,2969.835938 1764.394409,2954.423584 
	C1757.073364,2952.141846 1749.077515,2953.533203 1737.439331,2953.140381 
M1537.232788,3326.000732 
	C1537.231323,3292.707031 1537.297852,3259.413086 1537.145142,3226.120117 
	C1537.125244,3221.787109 1535.976562,3217.459473 1535.322266,3212.932617 
	C1493.430542,3212.932617 1452.903442,3212.915039 1412.376587,3213.034668 
	C1411.364746,3213.037598 1410.357300,3214.554688 1409.348877,3215.366943 
	C1407.245728,3240.967285 1407.935669,3614.682861 1410.251465,3631.144043 
	C1412.443604,3631.495850 1414.937744,3632.240234 1417.433472,3632.245117 
	C1454.722046,3632.320557 1492.010742,3632.335205 1529.299072,3632.214600 
	C1531.740112,3632.206543 1534.177368,3630.988281 1536.265259,3630.427246 
	C1536.651245,3628.254639 1537.084717,3626.950684 1537.085693,3625.645996 
	C1537.156494,3527.097656 1537.193237,3428.549316 1537.232788,3326.000732 
M2238.347168,3039.704346 
	C2261.653076,3039.699707 2284.959473,3039.782227 2308.263916,3039.601807 
	C2312.008301,3039.572754 2315.743408,3038.368652 2319.204346,3037.756836 
	C2321.375732,3013.223145 2320.794189,2718.117188 2318.501709,2702.626953 
	C2315.625488,2702.169678 2312.463867,2701.241699 2309.299072,2701.229736 
	C2278.669189,2701.115967 2248.037842,2701.076904 2217.408447,2701.255615 
	C2213.679932,2701.277344 2209.959961,2702.708008 2204.989746,2703.746094 
	C2204.989746,2711.753662 2204.989746,2718.994629 2204.989746,2726.235352 
	C2204.989746,2795.486816 2204.988770,2864.738281 2204.990234,2933.989746 
	C2204.990723,2964.620117 2204.907715,2995.251221 2205.100098,3025.880371 
	C2205.127441,3030.216309 2206.507568,3034.543457 2207.406006,3039.704346 
	C2217.242920,3039.704346 2225.860596,3039.704346 2238.347168,3039.704346 
z"/>
<path fill="#FEE497" opacity="1.000000" stroke="none" 
	d="
M2392.053711,2507.664795 
	C2809.983398,2507.669189 3227.913086,2507.798340 3645.842529,2507.488770 
	C3688.771240,2507.457031 3730.935547,2512.669434 3772.734619,2521.189697 
	C3836.349854,2534.156738 3897.116455,2555.655029 3954.737061,2585.675293 
	C4012.355225,2615.694336 4064.838867,2652.961426 4112.661133,2697.031738 
	C4157.556152,2738.404297 4195.897949,2785.197754 4228.771973,2836.351318 
	C4265.687012,2893.793945 4293.003418,2955.831055 4312.079590,3021.418701 
	C4325.517578,3067.620117 4332.916504,3114.897461 4336.775391,3162.797119 
	C4341.942871,3226.934570 4337.008789,3290.373291 4325.607422,3353.613037 
	C4312.354980,3427.116943 4286.296875,3495.794922 4250.799316,3561.166260 
	C4214.223145,3628.525146 4167.224121,3687.875732 4111.170898,3739.909180 
	C4056.615723,3790.552002 3995.616211,3832.192871 3927.885254,3863.157715 
	C3866.493164,3891.224609 3802.580811,3911.524902 3735.322510,3920.656006 
	C3700.265381,3925.415283 3665.227051,3928.416992 3629.828125,3928.405762 
	C3224.562988,3928.274902 2819.297852,3928.322510 2414.032715,3928.322510 
	C2406.116699,3928.322510 2398.200439,3928.322510 2389.191895,3928.322510 
	C2388.603516,3923.589844 2387.874512,3919.847412 2387.730713,3916.082764 
	C2387.502197,3910.092285 2387.661133,3904.087158 2387.661133,3898.088135 
	C2387.660645,3444.164551 2387.662354,2990.240723 2387.646973,2536.317139 
	C2387.646729,2528.323486 2387.442627,2520.329834 2388.444580,2510.451660 
	C2390.388428,2508.266113 2391.220947,2507.965332 2392.053711,2507.664795 
M4216.747559,3191.184814 
	C4211.711914,3153.538086 4204.080566,3116.343262 4193.977539,3079.811523 
	C4176.540039,3016.757324 4152.789551,2956.212646 4119.432617,2899.570557 
	C4094.257812,2856.822510 4064.348389,2817.854492 4028.821777,2783.447998 
	C3990.357666,2746.196533 3947.058838,2715.566650 3898.974365,2691.483154 
	C3859.466309,2671.696289 3818.199951,2657.271973 3775.685791,2645.926758 
	C3774.401123,2645.583740 3773.155029,2645.067383 3771.855713,2644.811279 
	C3754.380127,2641.366699 3737.566650,2653.809570 3734.021729,2669.546387 
	C3730.362061,2685.794189 3738.014893,2701.502441 3754.580811,2707.592773 
	C3758.320068,2708.967041 3762.240479,2709.855957 3766.091064,2710.918945 
	C3822.915283,2726.606445 3876.543945,2749.131836 3925.362305,2782.804932 
	C3964.102051,2809.525879 3997.858887,2841.393066 4026.759033,2878.257568 
	C4057.730225,2917.763672 4081.767822,2961.477295 4100.640625,3007.955322 
	C4125.288574,3068.654541 4141.218750,3131.764160 4151.844727,3196.299805 
	C4152.705566,3201.527100 4153.626953,3206.785645 4155.089844,3211.865479 
	C4160.866211,3231.922607 4191.080566,3241.953613 4208.616699,3222.043457 
	C4215.770020,3213.921387 4218.164062,3204.776611 4216.747559,3191.184814 
M3269.813477,3755.646240 
	C3096.722168,3755.646240 2923.630859,3755.645264 2750.539551,3755.648926 
	C2744.548096,3755.649170 2738.506592,3755.229980 2732.581543,3755.868896 
	C2728.080811,3756.354248 2723.371582,3757.523193 2719.376221,3759.589111 
	C2706.845459,3766.068359 2699.460938,3780.340332 2701.631592,3792.590576 
	C2704.220459,3807.198730 2716.591553,3819.104004 2731.378174,3820.764648 
	C2736.646973,3821.356201 2742.011475,3821.204346 2747.332275,3821.205078 
	C2927.746582,3821.224609 3108.161133,3821.222656 3288.575439,3821.215820 
	C3293.234619,3821.215576 3297.895264,3821.021973 3302.552490,3821.095947 
	C3320.436279,3821.379883 3333.689209,3802.457520 3333.163086,3787.906738 
	C3332.481201,3769.058594 3316.530029,3754.782227 3301.688232,3755.464600 
	C3292.386963,3755.892334 3283.052734,3755.610107 3269.813477,3755.646240 
z"/>
<path fill="#ABC1A1" opacity="1.000000" stroke="none" 
	d="
M2391.703613,2505.844727 
	C2391.220947,2507.965332 2390.388428,2508.266113 2388.232178,2508.631348 
	C2380.923584,2508.858154 2374.938232,2509.162598 2368.953125,2509.162842 
	C1911.633667,2509.184814 1454.314087,2509.191895 996.994629,2509.116943 
	C988.468872,2509.115479 979.750000,2510.580078 970.771667,2507.299316 
	C970.254639,2504.788818 969.403442,2502.281982 969.284485,2499.740479 
	C969.035522,2494.417969 969.153320,2489.077637 969.153320,2483.744629 
	C969.150879,2075.090332 968.927307,1666.435913 969.285461,1257.781982 
	C969.396545,1131.002319 1003.553833,1013.259644 1067.782349,904.143494 
	C1111.885498,829.217529 1168.305542,764.783508 1236.074585,710.575378 
	C1312.460083,649.475098 1398.044800,605.884094 1492.577515,580.251221 
	C1531.191528,569.780823 1570.423096,563.182678 1610.290527,558.986816 
	C1649.597778,554.849976 1688.922485,554.120483 1728.037964,556.798462 
	C1831.033936,563.850098 1928.827148,590.877625 2019.223999,641.306641 
	C2194.131836,738.881165 2309.868408,884.176147 2365.383545,1076.696411 
	C2378.298340,1121.483276 2386.195801,1167.393311 2388.901855,1214.214844 
	C2390.172607,1236.196167 2390.811768,1258.119019 2390.814453,1280.086792 
	C2390.862305,1679.408081 2390.845947,2078.729248 2390.870117,2478.050537 
	C2390.870850,2486.708496 2391.185547,2495.366699 2391.703613,2505.844727 
M1251.752563,1589.643188 
	C1249.557739,1620.852905 1246.916382,1652.039185 1245.268188,1683.277710 
	C1242.453613,1736.621948 1245.434448,1789.763184 1251.696777,1842.793091 
	C1257.894775,1895.279297 1269.442627,1946.411621 1288.685303,1995.685913 
	C1316.620239,2067.218262 1359.916016,2127.951172 1418.018799,2178.081787 
	C1456.593262,2211.363525 1499.583984,2237.852051 1545.212524,2260.329102 
	C1610.065186,2292.275635 1678.543457,2313.770020 1748.321167,2331.599854 
	C1751.293823,2332.359375 1754.543823,2332.033203 1760.423340,2332.371826 
	C1755.715454,2327.003906 1752.850220,2323.551025 1749.790283,2320.280029 
	C1735.681519,2305.198486 1720.847656,2290.738037 1707.483398,2275.026123 
	C1617.067139,2168.726318 1555.029663,2047.581299 1519.436768,1912.798096 
	C1511.259888,1881.833618 1505.694214,1850.356323 1503.214600,1818.386108 
	C1502.835083,1813.492065 1502.149170,1808.453979 1505.629883,1801.150879 
	C1508.045410,1807.088867 1509.597778,1810.570557 1510.894653,1814.144775 
	C1523.633789,1849.253784 1538.417725,1883.468018 1556.249512,1916.297974 
	C1602.881958,2002.152466 1662.357544,2077.597168 1738.577271,2139.211426 
	C1773.968018,2167.820312 1811.958008,2192.336914 1854.748657,2208.678711 
	C1873.362427,2215.786621 1892.317017,2221.535889 1912.322388,2223.140869 
	C1913.561646,2220.698242 1914.857544,2219.052490 1915.263062,2217.210938 
	C1925.446655,2170.966309 1932.122437,2124.164062 1934.588013,2076.923096 
	C1936.811646,2034.318848 1935.263062,1991.780518 1928.503540,1949.446045 
	C1922.166626,1909.760010 1911.710571,1871.371094 1895.970093,1834.457397 
	C1868.083130,1769.058472 1826.149780,1713.604614 1775.071289,1664.666016 
	C1733.086182,1624.439941 1686.945068,1589.401611 1639.746704,1555.653320 
	C1603.429565,1529.685303 1566.942261,1503.943970 1531.014893,1477.445190 
	C1492.878174,1449.317017 1456.683105,1418.858765 1424.970581,1383.436157 
	C1391.715332,1346.290405 1365.316650,1305.023071 1350.353149,1257.097656 
	C1339.962036,1223.817139 1334.305298,1189.792725 1335.645874,1154.788574 
	C1335.798828,1150.794678 1335.873657,1146.775146 1335.598389,1142.794312 
	C1335.367676,1139.457886 1336.744995,1135.637939 1332.972046,1130.942993 
	C1330.926514,1138.397827 1329.135376,1143.966309 1327.881348,1149.653198 
	C1320.433472,1183.430420 1312.572632,1217.129028 1305.868164,1251.055054 
	C1295.289551,1304.585815 1285.154297,1358.210693 1275.539185,1411.922485 
	C1269.910522,1443.365967 1265.196899,1474.993408 1260.922363,1506.653076 
	C1257.362061,1533.022339 1255.041748,1559.558838 1251.752563,1589.643188 
M2096.333740,1153.712891 
	C2090.817383,1133.851318 2086.061768,1113.740479 2079.646729,1094.173462 
	C2057.298340,1026.007324 2021.458618,965.767883 1971.002808,914.627075 
	C1925.621094,868.629150 1872.571045,833.300781 1814.655151,805.132874 
	C1749.115845,773.257141 1680.127441,751.107483 1609.616089,733.399597 
	C1606.971436,732.735413 1603.578613,730.703064 1600.532104,735.231201 
	C1602.720947,737.534180 1604.960449,739.831421 1607.135254,742.188293 
	C1625.193115,761.757446 1644.167725,780.568604 1661.128174,801.047363 
	C1735.497192,890.844177 1789.324463,991.984924 1825.501953,1102.671509 
	C1839.177124,1144.510864 1849.363037,1187.153442 1854.880371,1230.856445 
	C1855.545776,1236.127441 1855.718506,1241.473267 1855.877319,1246.791748 
	C1856.042603,1252.324585 1855.914185,1257.866089 1855.914185,1263.867920 
	C1853.945312,1263.071045 1853.003052,1262.981201 1852.844971,1262.581055 
	C1851.134766,1258.256470 1849.530273,1253.889893 1847.930420,1249.522217 
	C1809.813721,1145.458008 1752.676514,1053.419189 1674.477783,974.621887 
	C1636.738281,936.593628 1595.529785,903.122131 1548.458984,877.211670 
	C1522.682007,863.022400 1495.715942,851.852478 1466.907349,845.405151 
	C1459.846313,843.824829 1452.827393,842.583557 1445.547852,844.333008 
	C1437.213013,877.610840 1431.960571,910.451904 1428.647827,943.441650 
	C1424.124634,988.488159 1422.388062,1033.643677 1426.571045,1079.008545 
	C1430.879517,1125.734619 1440.609741,1171.030029 1457.124634,1214.842285 
	C1483.452637,1284.688110 1526.267822,1343.526489 1579.059448,1395.562256 
	C1611.390381,1427.430420 1646.545654,1456.000244 1683.078125,1482.816895 
	C1727.639771,1515.527466 1772.904053,1547.280029 1817.530884,1579.903198 
	C1860.067505,1610.998657 1900.761108,1644.244263 1936.115479,1683.649292 
	C1991.585449,1745.474731 2022.493774,1817.230713 2024.952271,1900.666260 
	C2025.274536,1911.602905 2024.996460,1922.557251 2024.996460,1933.503418 
	C2028.322632,1929.699707 2030.054565,1925.517944 2031.040771,1921.166870 
	C2035.451782,1901.705322 2039.919678,1882.249878 2043.874878,1862.692749 
	C2055.613037,1804.650146 2067.675537,1746.664429 2078.515625,1688.452271 
	C2085.455322,1651.185913 2091.131836,1613.648438 2096.138184,1576.067627 
	C2101.232666,1537.827881 2105.483154,1499.445190 2108.851562,1461.015259 
	C2111.754150,1427.897827 2113.820801,1394.647583 2114.590088,1361.417480 
	C2115.622559,1316.824463 2114.516113,1272.196777 2108.361328,1227.912964 
	C2105.068115,1204.218262 2100.742676,1180.667114 2096.333740,1153.712891 
z"/>
<path fill="#FBE195" opacity="1.000000" stroke="none" 
	d="
M993.157654,3515.999023 
	C993.276367,3423.405518 993.389221,3332.812256 993.576904,3242.218994 
	C993.579346,3241.035156 994.532715,3239.853760 995.638977,3237.286133 
	C998.710205,3237.006836 1002.497009,3236.366455 1006.284424,3236.362549 
	C1068.239502,3236.298584 1130.197632,3235.951172 1192.148438,3236.466553 
	C1222.981689,3236.723145 1253.064209,3241.928711 1281.337158,3255.244141 
	C1335.371826,3280.692871 1363.255737,3322.881104 1364.475586,3382.886963 
	C1365.239136,3420.441895 1355.135742,3453.808105 1329.748291,3482.041260 
	C1314.296143,3499.225586 1295.374146,3511.321533 1274.105103,3519.840820 
	C1246.558228,3530.875000 1217.714600,3535.317627 1188.188843,3535.649414 
	C1168.942139,3535.865479 1149.691162,3535.690186 1129.496338,3535.690186 
	C1126.067017,3552.187012 1128.146484,3568.045898 1127.778931,3583.739502 
	C1127.422241,3598.972168 1127.701660,3614.219482 1127.701660,3628.160400 
	C1126.118774,3629.934326 1125.733765,3630.507568 1125.214844,3630.906494 
	C1124.723633,3631.283447 1124.093506,3631.715088 1123.521851,3631.718994 
	C1087.564575,3631.957275 1051.607178,3632.159180 1015.649841,3632.349121 
	C1009.038574,3632.384033 1002.426941,3632.354248 994.844360,3632.354248 
	C994.201660,3626.847412 993.247070,3622.388916 993.229919,3617.926758 
	C993.101562,3584.617920 993.158691,3551.308594 993.157654,3515.999023 
M1157.958496,3431.697510 
	C1165.286011,3431.693359 1172.700928,3432.395020 1179.918457,3431.502197 
	C1188.404297,3430.451904 1196.956299,3428.720703 1205.042236,3425.990479 
	C1213.409546,3423.164795 1219.792725,3417.223877 1224.084717,3409.222656 
	C1239.148682,3381.140137 1225.176514,3348.599609 1194.135132,3342.087158 
	C1172.713379,3337.592773 1150.839111,3339.149414 1129.328003,3340.586426 
	C1126.200684,3367.214844 1126.935425,3417.574219 1130.800903,3431.697754 
	C1138.332031,3431.697754 1146.236450,3431.697754 1157.958496,3431.697510 
z"/>
<path fill="#AABFA0" opacity="1.000000" stroke="none" 
	d="
M1372.133179,3039.688477 
	C1356.330566,3039.341309 1342.428223,3040.515137 1328.260010,3038.807617 
	C1325.335327,3022.057861 1327.063721,3006.091309 1326.761108,2990.222168 
	C1326.469238,2974.908936 1326.742920,2959.585205 1326.685425,2944.266602 
	C1326.626465,2928.540527 1326.978394,2912.789307 1326.403320,2897.420654 
	C1323.652466,2897.120117 1322.969849,2896.916260 1322.334473,2897.014893 
	C1321.781494,2897.101074 1321.161499,2897.418701 1320.782715,2897.829102 
	C1319.882690,2898.804199 1318.977051,2899.817139 1318.301880,2900.950928 
	C1297.190308,2936.401367 1276.105957,2971.867920 1254.670044,3007.916260 
	C1237.552368,3010.107178 1220.444580,3009.445801 1202.785156,3008.408447 
	C1179.399658,2972.884766 1158.338989,2936.164551 1135.281982,2900.786865 
	C1129.370483,2903.922119 1130.983398,2908.326660 1130.968140,2911.864014 
	C1130.817139,2947.163574 1130.913330,2982.463867 1130.829956,3017.764160 
	C1130.814575,3024.285889 1130.307861,3030.806396 1130.042725,3036.985596 
	C1114.758789,3040.300537 1060.502930,3041.081055 1028.558472,3038.573242 
	C1027.968628,3034.494141 1026.792114,3030.134766 1026.787720,3025.774414 
	C1026.682495,2922.538086 1026.684570,2819.301514 1026.764526,2716.065186 
	C1026.767944,2711.563965 1027.695801,2707.063232 1028.340820,2701.225098 
	C1058.963013,2701.108154 1088.776978,2701.110107 1119.654419,2701.237061 
	C1138.505005,2730.327637 1155.819458,2760.208496 1174.089355,2789.486572 
	C1192.353149,2818.754883 1209.607422,2848.669678 1229.370239,2878.920898 
	C1243.695801,2859.214355 1254.105469,2839.267578 1265.739502,2820.110352 
	C1277.832275,2800.197266 1289.644897,2780.114014 1301.573486,2760.101318 
	C1313.130737,2740.711426 1324.679077,2721.316650 1335.709595,2702.799805 
	C1358.281738,2700.185059 1413.736328,2700.599854 1429.714111,2703.533203 
	C1430.066406,2706.967529 1430.786987,2710.775635 1430.799805,2714.586426 
	C1431.145996,2817.809082 1431.426392,2921.032227 1431.680664,3024.255127 
	C1431.690430,3028.230469 1431.331909,3032.207031 1431.093628,3037.278809 
	C1427.412598,3038.076904 1423.746826,3039.498779 1420.057861,3039.562500 
	C1404.743164,3039.827393 1389.421631,3039.682617 1372.133179,3039.688477 
z"/>
<path fill="#AABFA0" opacity="1.000000" stroke="none" 
	d="
M1808.290283,2944.000000 
	C1808.290283,2862.758545 1808.290283,2783.516846 1808.290283,2703.489990 
	C1812.980835,2702.597656 1816.735962,2701.270752 1820.494629,2701.260742 
	C1872.460571,2701.120850 1924.437378,2700.536377 1976.389771,2701.383545 
	C2009.817627,2701.928711 2042.739258,2706.912109 2073.458252,2721.478516 
	C2120.345215,2743.711914 2151.789795,2779.331787 2161.622803,2830.593994 
	C2172.367920,2886.612305 2165.122803,2939.532959 2124.425781,2983.531494 
	C2103.077393,3006.612305 2076.457275,3021.197021 2046.498413,3030.024902 
	C2026.594482,3035.889893 2006.251465,3039.467773 1985.534058,3039.578125 
	C1930.238159,3039.873291 1874.939453,3039.681885 1819.641968,3039.643311 
	C1816.999023,3039.641357 1814.356201,3039.250000 1810.382080,3038.934082 
	C1809.697021,3034.659912 1808.425781,3030.308350 1808.394531,3025.947754 
	C1808.203491,2999.299805 1808.293701,2972.649414 1808.290283,2944.000000 
M1938.831787,2950.837402 
	C1954.731323,2950.134766 1970.700806,2950.134277 1986.512939,2948.555176 
	C2007.331909,2946.476562 2024.273315,2936.543701 2036.808350,2919.668457 
	C2045.842041,2907.507324 2048.727539,2893.072021 2050.371094,2878.510254 
	C2055.907959,2829.456787 2023.417236,2792.494385 1974.299438,2791.689209 
	C1961.680054,2791.482178 1949.053345,2791.569092 1936.432373,2791.719971 
	C1932.656738,2791.764893 1928.889160,2792.484375 1923.900635,2793.027588 
	C1923.820312,2811.267578 1923.715210,2828.415527 1923.677734,2845.563232 
	C1923.639893,2862.836426 1923.560791,2880.110840 1923.699951,2897.382812 
	C1923.837769,2914.482422 1923.039673,2931.628174 1924.342651,2949.448242 
	C1928.801514,2950.014893 1931.976440,2950.418457 1938.831787,2950.837402 
z"/>
<path fill="#FCE295" opacity="1.000000" stroke="none" 
	d="
M2004.109009,3322.786133 
	C2028.693115,3322.786377 2051.303223,3322.786377 2074.575195,3322.786377 
	C2075.329346,3331.750244 2075.975342,3339.428223 2076.596436,3346.812744 
	C2082.170166,3348.320557 2084.456055,3344.153320 2087.534424,3342.068359 
	C2131.494629,3312.298096 2178.513428,3309.534424 2226.455566,3329.095703 
	C2265.653809,3345.089111 2285.348877,3377.558350 2291.793213,3418.341064 
	C2293.862061,3431.433350 2294.615234,3444.845703 2294.700195,3458.119385 
	C2295.025146,3508.779785 2294.849121,3559.443604 2294.810303,3610.105957 
	C2294.805176,3616.664551 2294.507080,3623.223389 2294.380859,3628.325684 
	C2292.823242,3630.227051 2292.492676,3630.865967 2291.968262,3631.204590 
	C2291.433838,3631.549561 2290.708740,3631.752441 2290.065674,3631.755371 
	C2251.423340,3631.942139 2212.780762,3632.119141 2174.138184,3632.210938 
	C2172.223145,3632.215332 2170.306396,3631.453125 2167.004639,3630.754883 
	C2166.921631,3624.267334 2166.768555,3617.688721 2166.764893,3611.110352 
	C2166.742188,3570.447021 2166.872803,3529.782959 2166.663086,3489.120850 
	C2166.614990,3479.832520 2165.911865,3470.485596 2164.672119,3461.278320 
	C2161.856689,3440.367676 2152.068359,3428.950684 2135.131104,3425.842285 
	C2117.208984,3422.553223 2096.279785,3432.525146 2088.809570,3449.838379 
	C2084.677979,3459.414062 2083.384766,3470.287598 2081.421631,3480.691406 
	C2080.571045,3485.199219 2081.248535,3489.997070 2081.248047,3494.663330 
	C2081.245117,3533.993408 2081.272705,3573.323486 2081.217529,3612.653564 
	C2081.209229,3618.580566 2080.820068,3624.507080 2080.613525,3630.250244 
	C2065.177979,3632.886230 1974.168457,3633.206787 1954.704346,3630.840088 
	C1954.260742,3630.342529 1953.742554,3629.891357 1953.395142,3629.333984 
	C1953.064209,3628.802979 1952.729614,3628.166992 1952.710083,3627.566895 
	C1952.537109,3622.241943 1952.327026,3616.914307 1952.325806,3611.587646 
	C1952.304077,3516.299072 1952.309937,3421.010498 1952.309937,3324.830078 
	C1969.283081,3320.848389 1985.822021,3323.697998 2004.109009,3322.786133 
z"/>
<path fill="#FBE195" opacity="1.000000" stroke="none" 
	d="
M1898.845459,3540.000488 
	C1898.845459,3571.205566 1898.845459,3600.410889 1898.845459,3630.640381 
	C1887.979614,3633.630859 1878.050537,3632.033691 1868.332397,3632.296875 
	C1858.346313,3632.567383 1848.347046,3632.357178 1838.353638,3632.357178 
	C1829.026367,3632.357178 1819.698608,3632.426514 1810.372070,3632.337891 
	C1800.525146,3632.244141 1790.622070,3632.807617 1780.004150,3631.683350 
	C1780.004150,3621.101807 1780.004150,3611.928223 1780.004150,3603.251709 
	C1774.740356,3600.300049 1773.398193,3604.089111 1771.497559,3606.461670 
	C1756.430786,3625.267090 1736.255737,3633.767090 1712.852417,3636.845215 
	C1683.054077,3640.764160 1654.424072,3637.867432 1627.338867,3624.380615 
	C1578.982300,3600.302246 1568.151245,3546.387451 1583.512207,3506.840820 
	C1589.511475,3491.395996 1600.144043,3479.843262 1613.974731,3470.916992 
	C1630.562500,3460.211182 1649.081909,3455.264893 1668.225586,3451.991699 
	C1688.664917,3448.496582 1709.269287,3448.072510 1729.945679,3448.225098 
	C1742.353516,3448.316650 1754.849365,3449.093994 1768.451050,3447.482666 
	C1765.379517,3429.629150 1754.397339,3421.022217 1739.755859,3416.614990 
	C1725.593750,3412.352295 1710.882324,3412.126953 1696.229126,3413.973877 
	C1674.143066,3416.757812 1653.510132,3423.802734 1634.100830,3436.416504 
	C1624.356812,3423.969971 1619.632446,3409.318359 1612.707764,3395.909668 
	C1605.688843,3382.318848 1599.339233,3368.382324 1592.701782,3354.607910 
	C1594.917236,3347.834473 1601.533325,3346.637451 1606.619019,3344.135742 
	C1630.082764,3332.593750 1655.054077,3325.633301 1680.801392,3321.464600 
	C1717.945312,3315.450439 1755.036011,3315.062988 1791.858032,3323.758789 
	C1800.895630,3325.893311 1809.887207,3328.568604 1818.541138,3331.921631 
	C1863.668823,3349.406982 1888.717407,3383.101807 1895.925903,3430.289062 
	C1898.025635,3444.035400 1898.446167,3458.106445 1898.727417,3472.046875 
	C1899.170898,3494.023193 1898.845459,3516.015137 1898.845459,3540.000488 
M1727.031738,3560.308838 
	C1759.173828,3558.724365 1773.109009,3543.077881 1769.277588,3512.025391 
	C1753.742676,3509.305176 1738.065552,3510.497070 1722.433594,3512.555908 
	C1719.257568,3512.974365 1716.117920,3514.502197 1713.212646,3516.004395 
	C1698.748047,3523.482422 1695.950562,3541.399170 1708.124146,3552.252686 
	C1712.305298,3555.980225 1718.491699,3557.458252 1727.031738,3560.308838 
z"/>
<path fill="#A9BF9F" opacity="1.000000" stroke="none" 
	d="
M1739.349121,2953.140625 
	C1749.077515,2953.533203 1757.073364,2952.141846 1764.394409,2954.423584 
	C1767.450806,2969.835938 1767.935181,3014.824951 1765.322754,3037.823730 
	C1762.683716,3038.380371 1759.633911,3039.582520 1756.582764,3039.585938 
	C1669.316650,3039.686279 1582.050537,3039.674805 1494.784302,3039.625000 
	C1492.213989,3039.623535 1489.643921,3039.010986 1486.693237,3038.634766 
	C1482.640747,3031.584473 1484.341187,3024.109375 1484.330688,3017.039795 
	C1484.197388,2926.443115 1484.242065,2835.845947 1484.243164,2745.249023 
	C1484.243286,2734.590576 1484.173584,2723.930908 1484.307373,2713.273926 
	C1484.347656,2710.068359 1484.967163,2706.869873 1485.376587,2703.169434 
	C1488.458740,2702.431641 1490.931885,2701.445801 1493.454834,2701.295654 
	C1521.925415,2699.601562 1743.379028,2700.982178 1756.869385,2702.837402 
	C1760.409912,2715.729248 1761.164673,2759.783936 1758.127441,2786.899658 
	C1753.369507,2787.366455 1748.305176,2788.280273 1743.238159,2788.294678 
	C1701.936890,2788.412354 1660.635254,2788.333496 1619.333618,2788.392090 
	C1612.794312,2788.401367 1606.255493,2788.799561 1599.109253,2789.038086 
	C1598.404053,2794.064697 1597.353760,2797.898438 1597.438354,2801.707031 
	C1597.613525,2809.603516 1595.909546,2817.689453 1599.440430,2826.054199 
	C1614.249268,2829.453369 1629.564819,2827.153564 1644.725952,2827.545166 
	C1660.702881,2827.958008 1676.699707,2827.539062 1692.686401,2827.666016 
	C1707.850098,2827.786377 1723.055298,2827.079590 1739.354004,2828.226074 
	C1741.303223,2855.149414 1740.104858,2880.861572 1740.267822,2907.753906 
	C1734.226440,2908.319336 1729.156006,2909.187256 1724.082764,2909.205322 
	C1689.443237,2909.327881 1654.802734,2909.233887 1620.162964,2909.307617 
	C1613.620728,2909.321533 1607.079590,2909.774658 1601.312744,2909.995605 
	C1595.618774,2916.819336 1597.677979,2923.724365 1597.382568,2930.154053 
	C1597.079102,2936.764648 1597.315308,2943.399902 1597.315308,2949.017822 
	C1603.484375,2954.676758 1609.753174,2953.039062 1615.532593,2953.059814 
	C1656.167725,2953.207275 1696.803711,2953.139404 1739.349121,2953.140625 
z"/>
<path fill="#FDE296" opacity="1.000000" stroke="none" 
	d="
M1537.232666,3328.000977 
	C1537.193237,3428.549316 1537.156494,3527.097656 1537.085693,3625.645996 
	C1537.084717,3626.950684 1536.651245,3628.254639 1536.265259,3630.427246 
	C1534.177368,3630.988281 1531.740112,3632.206543 1529.299072,3632.214600 
	C1492.010742,3632.335205 1454.722046,3632.320557 1417.433472,3632.245117 
	C1414.937744,3632.240234 1412.443604,3631.495850 1410.251465,3631.144043 
	C1407.935669,3614.682861 1407.245728,3240.967285 1409.348389,3215.366211 
	C1410.357300,3214.554688 1411.364746,3213.037598 1412.376587,3213.034668 
	C1452.903442,3212.915039 1493.430542,3212.932617 1535.322266,3212.932617 
	C1535.976562,3217.459473 1537.125244,3221.787109 1537.145142,3226.120117 
	C1537.297852,3259.413086 1537.231323,3292.707031 1537.232666,3328.000977 
z"/>
<path fill="#A8BE9F" opacity="1.000000" stroke="none" 
	d="
M2236.412598,3039.704346 
	C2225.860596,3039.704346 2217.242920,3039.704346 2207.406006,3039.704346 
	C2206.507568,3034.543457 2205.127441,3030.216309 2205.100098,3025.880371 
	C2204.907715,2995.251221 2204.990723,2964.620117 2204.990234,2933.989746 
	C2204.988770,2864.738281 2204.989746,2795.486816 2204.989746,2726.235352 
	C2204.989746,2718.994629 2204.989746,2711.753662 2204.989746,2703.746094 
	C2209.959961,2702.708008 2213.679932,2701.277344 2217.408447,2701.255615 
	C2248.037842,2701.076904 2278.669189,2701.115967 2309.299072,2701.229736 
	C2312.463867,2701.241699 2315.625488,2702.169678 2318.501709,2702.626953 
	C2320.794189,2718.117188 2321.375732,3013.223145 2319.204346,3037.756836 
	C2315.743408,3038.368652 2312.008301,3039.572754 2308.263916,3039.601807 
	C2284.959473,3039.782227 2261.653076,3039.699707 2236.412598,3039.704346 
z"/>
<path fill="#050503" opacity="0.000000" stroke="none" 
	d="
M4216.963867,3192.773926 
	C4218.164062,3204.776611 4215.770020,3213.921387 4208.616699,3222.043457 
	C4191.080566,3241.953613 4160.866211,3231.922607 4155.089844,3211.865479 
	C4153.626953,3206.785645 4152.705566,3201.527100 4151.844727,3196.299805 
	C4141.218750,3131.764160 4125.288574,3068.654541 4100.640625,3007.955322 
	C4081.767822,2961.477295 4057.730225,2917.763672 4026.759033,2878.257568 
	C3997.858887,2841.393066 3964.102051,2809.525879 3925.362305,2782.804932 
	C3876.543945,2749.131836 3822.915283,2726.606445 3766.091064,2710.918945 
	C3762.240479,2709.855957 3758.320068,2708.967041 3754.580811,2707.592773 
	C3738.014893,2701.502441 3730.362061,2685.794189 3734.021729,2669.546387 
	C3737.566650,2653.809570 3754.380127,2641.366699 3771.855713,2644.811279 
	C3773.155029,2645.067383 3774.401123,2645.583740 3775.685791,2645.926758 
	C3818.199951,2657.271973 3859.466309,2671.696289 3898.974365,2691.483154 
	C3947.058838,2715.566650 3990.357666,2746.196533 4028.821777,2783.447998 
	C4064.348389,2817.854492 4094.257812,2856.822510 4119.432617,2899.570557 
	C4152.789551,2956.212646 4176.540039,3016.757324 4193.977539,3079.811523 
	C4204.080566,3116.343262 4211.711914,3153.538086 4216.963867,3192.773926 
z"/>
<path fill="#010101" opacity="0.000000" stroke="none" 
	d="
M3271.773438,3755.646240 
	C3283.052734,3755.610107 3292.386963,3755.892334 3301.688232,3755.464600 
	C3316.530029,3754.782227 3332.481201,3769.058594 3333.163086,3787.906738 
	C3333.689209,3802.457520 3320.436279,3821.379883 3302.552490,3821.095947 
	C3297.895264,3821.021973 3293.234619,3821.215576 3288.575439,3821.215820 
	C3108.161133,3821.222656 2927.746582,3821.224609 2747.332275,3821.205078 
	C2742.011475,3821.204346 2736.646973,3821.356201 2731.378174,3820.764648 
	C2716.591553,3819.104004 2704.220459,3807.198730 2701.631592,3792.590576 
	C2699.460938,3780.340332 2706.845459,3766.068359 2719.376221,3759.589111 
	C2723.371582,3757.523193 2728.080811,3756.354248 2732.581543,3755.868896 
	C2738.506592,3755.229980 2744.548096,3755.649170 2750.539551,3755.648926 
	C2923.630859,3755.645264 3096.722168,3755.646240 3271.773438,3755.646240 
z"/>
<path fill="#010101" opacity="0.000000" stroke="none" 
	d="
M1251.962402,1587.832275 
	C1255.041748,1559.558838 1257.362061,1533.022339 1260.922363,1506.653076 
	C1265.196899,1474.993408 1269.910522,1443.365967 1275.539185,1411.922485 
	C1285.154297,1358.210693 1295.289551,1304.585815 1305.868164,1251.055054 
	C1312.572632,1217.129028 1320.433472,1183.430420 1327.881348,1149.653198 
	C1329.135376,1143.966309 1330.926514,1138.397827 1332.972046,1130.942993 
	C1336.744995,1135.637939 1335.367676,1139.457886 1335.598389,1142.794312 
	C1335.873657,1146.775146 1335.798828,1150.794678 1335.645874,1154.788574 
	C1334.305298,1189.792725 1339.962036,1223.817139 1350.353149,1257.097656 
	C1365.316650,1305.023071 1391.715332,1346.290405 1424.970581,1383.436157 
	C1456.683105,1418.858765 1492.878174,1449.317017 1531.014893,1477.445190 
	C1566.942261,1503.943970 1603.429565,1529.685303 1639.746704,1555.653320 
	C1686.945068,1589.401611 1733.086182,1624.439941 1775.071289,1664.666016 
	C1826.149780,1713.604614 1868.083130,1769.058472 1895.970093,1834.457397 
	C1911.710571,1871.371094 1922.166626,1909.760010 1928.503540,1949.446045 
	C1935.263062,1991.780518 1936.811646,2034.318848 1934.588013,2076.923096 
	C1932.122437,2124.164062 1925.446655,2170.966309 1915.263062,2217.210938 
	C1914.857544,2219.052490 1913.561646,2220.698242 1912.322388,2223.140869 
	C1892.317017,2221.535889 1873.362427,2215.786621 1854.748657,2208.678711 
	C1811.958008,2192.336914 1773.968018,2167.820312 1738.577271,2139.211426 
	C1662.357544,2077.597168 1602.881958,2002.152466 1556.249512,1916.297974 
	C1538.417725,1883.468018 1523.633789,1849.253784 1510.894653,1814.144775 
	C1509.597778,1810.570557 1508.045410,1807.088867 1505.629883,1801.150879 
	C1502.149170,1808.453979 1502.835083,1813.492065 1503.214600,1818.386108 
	C1505.694214,1850.356323 1511.259888,1881.833618 1519.436768,1912.798096 
	C1555.029663,2047.581299 1617.067139,2168.726318 1707.483398,2275.026123 
	C1720.847656,2290.738037 1735.681519,2305.198486 1749.790283,2320.280029 
	C1752.850220,2323.551025 1755.715454,2327.003906 1760.423340,2332.371826 
	C1754.543823,2332.033203 1751.293823,2332.359375 1748.321167,2331.599854 
	C1678.543457,2313.770020 1610.065186,2292.275635 1545.212524,2260.329102 
	C1499.583984,2237.852051 1456.593262,2211.363525 1418.018799,2178.081787 
	C1359.916016,2127.951172 1316.620239,2067.218262 1288.685303,1995.685913 
	C1269.442627,1946.411621 1257.894775,1895.279297 1251.696777,1842.793091 
	C1245.434448,1789.763184 1242.453613,1736.621948 1245.268188,1683.277710 
	C1246.916382,1652.039185 1249.557739,1620.852905 1251.962402,1587.832275 
z"/>
<path fill="#010101" opacity="0.000000" stroke="none" 
	d="
M2096.608398,1155.382080 
	C2100.742676,1180.667114 2105.068115,1204.218262 2108.361328,1227.912964 
	C2114.516113,1272.196777 2115.622559,1316.824463 2114.590088,1361.417480 
	C2113.820801,1394.647583 2111.754150,1427.897827 2108.851562,1461.015259 
	C2105.483154,1499.445190 2101.232666,1537.827881 2096.138184,1576.067627 
	C2091.131836,1613.648438 2085.455322,1651.185913 2078.515625,1688.452271 
	C2067.675537,1746.664429 2055.613037,1804.650146 2043.874878,1862.692749 
	C2039.919678,1882.249878 2035.451782,1901.705322 2031.040771,1921.166870 
	C2030.054565,1925.517944 2028.322632,1929.699707 2024.996460,1933.503418 
	C2024.996460,1922.557251 2025.274536,1911.602905 2024.952271,1900.666260 
	C2022.493774,1817.230713 1991.585449,1745.474731 1936.115479,1683.649292 
	C1900.761108,1644.244263 1860.067505,1610.998657 1817.530884,1579.903198 
	C1772.904053,1547.280029 1727.639771,1515.527466 1683.078125,1482.816895 
	C1646.545654,1456.000244 1611.390381,1427.430420 1579.059448,1395.562256 
	C1526.267822,1343.526489 1483.452637,1284.688110 1457.124634,1214.842285 
	C1440.609741,1171.030029 1430.879517,1125.734619 1426.571045,1079.008545 
	C1422.388062,1033.643677 1424.124634,988.488159 1428.647827,943.441650 
	C1431.960571,910.451904 1437.213013,877.610840 1445.547852,844.333008 
	C1452.827393,842.583557 1459.846313,843.824829 1466.907349,845.405151 
	C1495.715942,851.852478 1522.682007,863.022400 1548.458984,877.211670 
	C1595.529785,903.122131 1636.738281,936.593628 1674.477783,974.621887 
	C1752.676514,1053.419189 1809.813721,1145.458008 1847.930420,1249.522217 
	C1849.530273,1253.889893 1851.134766,1258.256470 1852.844971,1262.581055 
	C1853.003052,1262.981201 1853.945312,1263.071045 1855.914185,1263.867920 
	C1855.914185,1257.866089 1856.042603,1252.324585 1855.877319,1246.791748 
	C1855.718506,1241.473267 1855.545776,1236.127441 1854.880371,1230.856445 
	C1849.363037,1187.153442 1839.177124,1144.510864 1825.501953,1102.671509 
	C1789.324463,991.984924 1735.497192,890.844177 1661.128174,801.047363 
	C1644.167725,780.568604 1625.193115,761.757446 1607.135254,742.188293 
	C1604.960449,739.831421 1602.720947,737.534180 1600.532104,735.231201 
	C1603.578613,730.703064 1606.971436,732.735413 1609.616089,733.399597 
	C1680.127441,751.107483 1749.115845,773.257141 1814.655151,805.132874 
	C1872.571045,833.300781 1925.621094,868.629150 1971.002808,914.627075 
	C2021.458618,965.767883 2057.298340,1026.007324 2079.646729,1094.173462 
	C2086.061768,1113.740479 2090.817383,1133.851318 2096.608398,1155.382080 
z"/>
<path fill="#050503" opacity="0.000000" stroke="none" 
	d="
M1156.049683,3431.697754 
	C1146.236450,3431.697754 1138.332031,3431.697754 1130.800903,3431.697754 
	C1126.935425,3417.574219 1126.200684,3367.214844 1129.328003,3340.586426 
	C1150.839111,3339.149414 1172.713379,3337.592773 1194.135132,3342.087158 
	C1225.176514,3348.599609 1239.148682,3381.140137 1224.084717,3409.222656 
	C1219.792725,3417.223877 1213.409546,3423.164795 1205.042236,3425.990479 
	C1196.956299,3428.720703 1188.404297,3430.451904 1179.918457,3431.502197 
	C1172.700928,3432.395020 1165.286011,3431.693359 1156.049683,3431.697754 
z"/>
<path fill="#030303" opacity="0.000000" stroke="none" 
	d="
M1936.991577,2950.829590 
	C1931.976440,2950.418457 1928.801514,2950.014893 1924.342651,2949.448242 
	C1923.039673,2931.628174 1923.837769,2914.482422 1923.699951,2897.382812 
	C1923.560791,2880.110840 1923.639893,2862.836426 1923.677734,2845.563232 
	C1923.715210,2828.415527 1923.820312,2811.267578 1923.900635,2793.027588 
	C1928.889160,2792.484375 1932.656738,2791.764893 1936.432373,2791.719971 
	C1949.053345,2791.569092 1961.680054,2791.482178 1974.299438,2791.689209 
	C2023.417236,2792.494385 2055.907959,2829.456787 2050.371094,2878.510254 
	C2048.727539,2893.072021 2045.842041,2907.507324 2036.808350,2919.668457 
	C2024.273315,2936.543701 2007.331909,2946.476562 1986.512939,2948.555176 
	C1970.700806,2950.134277 1954.731323,2950.134766 1936.991577,2950.829590 
z"/>
<path fill="#0C0B07" opacity="0.000000" stroke="none" 
	d="
M1725.396851,3560.136230 
	C1718.491699,3557.458252 1712.305298,3555.980225 1708.124146,3552.252686 
	C1695.950562,3541.399170 1698.748047,3523.482422 1713.212646,3516.004395 
	C1716.117920,3514.502197 1719.257568,3512.974365 1722.433594,3512.555908 
	C1738.065552,3510.497070 1753.742676,3509.305176 1769.277588,3512.025391 
	C1773.109009,3543.077881 1759.173828,3558.724365 1725.396851,3560.136230 
z"/>
</svg>